<svg xmlns="http://www.w3.org/2000/svg" width="512" height="512" viewBox="0 0 512 512" role="img" aria-label="BCP Travel">
  <defs>
    <style>.flap{font-family:'SF Mono',Menlo,'DejaVu Sans Mono',ui-monospace,monospace;font-weight:700;text-anchor:middle;dominant-baseline:central;fill:#ffc24a}</style>
    <symbol id="s1" viewBox="0 0 10 10"><circle cx="5" cy="5" r="4.6" fill="#7a6a45" stroke="#3a3019" stroke-width="0.8"/><rect x="1.6" y="4.3" width="6.8" height="1.4" rx="0.7" fill="#2a2418" transform="rotate(24 5 5)"/></symbol>
    <symbol id="s2" viewBox="0 0 10 10"><circle cx="5" cy="5" r="4.6" fill="#7a6a45" stroke="#3a3019" stroke-width="0.8"/><rect x="1.6" y="4.3" width="6.8" height="1.4" rx="0.7" fill="#2a2418" transform="rotate(-41 5 5)"/></symbol>
    <symbol id="s3" viewBox="0 0 10 10"><circle cx="5" cy="5" r="4.6" fill="#7a6a45" stroke="#3a3019" stroke-width="0.8"/><rect x="1.6" y="4.3" width="6.8" height="1.4" rx="0.7" fill="#2a2418" transform="rotate(69 5 5)"/></symbol>
    <symbol id="s4" viewBox="0 0 10 10"><circle cx="5" cy="5" r="4.6" fill="#7a6a45" stroke="#3a3019" stroke-width="0.8"/><rect x="1.6" y="4.3" width="6.8" height="1.4" rx="0.7" fill="#2a2418" transform="rotate(-11 5 5)"/></symbol>
  </defs>
  <g transform="scale(5.12)">
    <rect width="100" height="100" rx="22" fill="#100f22"/>
    <rect x="8" y="8" width="84" height="84" rx="15" fill="#1c1b33" stroke="#4f4636" stroke-width="2.6"/>
    <rect x="17" y="30" width="18" height="40" rx="4" fill="#0f0e1f"/>
    <rect x="41" y="30" width="18" height="40" rx="4" fill="#0f0e1f"/>
    <rect x="65" y="30" width="18" height="40" rx="4" fill="#0f0e1f"/>
    <text class="flap" x="26" y="50" font-size="22">B</text>
    <text class="flap" x="50" y="50" font-size="22">C</text>
    <text class="flap" x="74" y="50" font-size="22">P</text>
    <use href="#s1" x="14" y="14" width="9" height="9"/>
    <use href="#s2" x="77" y="14" width="9" height="9"/>
    <use href="#s3" x="14" y="77" width="9" height="9"/>
    <use href="#s4" x="77" y="77" width="9" height="9"/>
  </g>
</svg>
